<?xml version="1.0" encoding="UTF-8"?>
<svg width="128" height="128" version="1.1" viewBox="0 0 128 128" xmlns="http://www.w3.org/2000/svg">
 <g fill="#409EFF">
  <circle cx="64" cy="64" r="60" fill-opacity=".2"/>
  <path d="m64 16c-26.51 0-48 21.49-48 48s21.49 48 48 48 48-21.49 48-48-21.49-48-48-48zm0 8c22.091 0 40 17.909 40 40s-17.909 40-40 40-40-17.909-40-40 17.909-40 40-40z"/>
  <path d="m64 40c-13.255 0-24 10.745-24 24s10.745 24 24 24 24-10.745 24-24-10.745-24-24-24zm0 8c8.8366 0 16 7.1634 16 16s-7.1634 16-16 16-16-7.1634-16-16 7.1634-16 16-16z"/>
  <circle cx="64" cy="64" r="8"/>
 </g>
</svg>
